<svg width="276" height="165" viewBox="0 0 276 165" fill="none" xmlns="http://www.w3.org/2000/svg">
<path d="M234.148 49.5912L230.997 64.8847L228.969 62.903L225.517 65.3688L222.88 62.0883L216.963 66.3981L211.91 57.9266L206.271 61.2359L204.035 58.1461L196.875 62.1886L194.721 57.5676L199.739 33.21L226.647 38.7767L234.148 49.5912Z" fill="#EBEBEB"/>
<path d="M226.647 38.7773L234.149 49.5905L224.817 47.66L226.647 38.7773Z" fill="#DBDBDB"/>
<path d="M230.326 67.9411L225.704 90.3795L189.462 82.8835L194.05 60.624L196.205 65.2447L203.365 61.2022L205.6 64.2923L211.24 60.9831L216.293 69.4542L222.21 65.1444L224.847 68.4249L228.299 65.9595L230.326 67.9411Z" fill="#EBEBEB"/>
<path d="M178.453 65.3116L141.518 67.6018L138.584 20.0931L166.008 18.3926L176.078 26.8554L178.453 65.3116Z" fill="#EBEBEB"/>
<path d="M166.008 18.3926L176.078 26.8554L166.567 27.4451L166.008 18.3926Z" fill="#DBDBDB"/>
<path d="M155.769 50.3573L155.626 49.2858C155.254 47.0645 155.861 44.5806 157.787 41.9815C159.523 39.6834 160.466 38.011 160.362 36.1488C160.244 34.0378 158.843 32.7046 156.239 32.8092C154.751 32.8927 153.127 33.4821 152.138 34.3265L151.001 31.7743C152.309 30.7044 154.626 29.9101 156.815 29.787C161.566 29.5204 163.878 32.3389 164.053 35.4842C164.211 38.2991 162.755 40.415 160.904 42.8857C159.207 45.14 158.647 46.9985 158.889 49.1023L158.991 50.1761L155.769 50.3573ZM155.184 56.2029C155.099 54.6714 156.071 53.5371 157.517 53.456C158.963 53.3748 160.014 54.3955 160.1 55.927C160.181 57.3757 159.293 58.5465 157.765 58.6323C156.319 58.7135 155.266 57.6516 155.184 56.2029Z" fill="#DBDBDB"/>
<path d="M63.3996 42.2788L59.6828 40.5898L59.1674 41.7303C59.0159 42.0656 58.6875 42.2798 58.3203 42.2959C58.1175 42.3049 57.9146 42.325 57.7127 42.3557C57.3504 42.4111 56.9875 42.2649 56.7741 41.9666L56.0466 40.9489L52.7279 43.3315L53.4554 44.3489C53.6688 44.6475 53.6902 45.0386 53.5216 45.3646C53.4274 45.5461 53.3434 45.7322 53.2697 45.922C53.1363 46.2652 52.8284 46.5077 52.4628 46.5437L51.2192 46.6658L51.62 50.7354L52.8679 50.611C53.2338 50.5743 53.5799 50.7568 53.7785 51.067C53.8325 51.1512 53.8888 51.2343 53.9471 51.3162C54.0057 51.398 54.066 51.4782 54.1282 51.5564C54.3561 51.8432 54.4174 52.2283 54.2666 52.5622L53.7475 53.711L57.4644 55.3999L57.9821 54.2571C58.1339 53.9218 58.4629 53.708 58.8301 53.6922C59.0323 53.6836 59.2342 53.6638 59.4354 53.6334C59.7974 53.5786 60.1596 53.7245 60.3731 54.0228L61.1009 55.0409L64.4196 52.6583L63.6917 51.6402C63.4787 51.3419 63.4569 50.9512 63.6252 50.6255C63.7188 50.4446 63.8021 50.2592 63.8752 50.0701C64.0082 49.7269 64.3158 49.4837 64.6817 49.4474L65.9279 49.3236L65.5271 45.2541L64.2803 45.3775C63.9157 45.4135 63.5706 45.2316 63.3726 44.9224C63.3183 44.8379 63.2616 44.7541 63.2027 44.6713C63.1441 44.5894 63.0838 44.5093 63.0216 44.431C62.7923 44.143 62.7311 43.7559 62.8829 43.4203L63.3996 42.2788ZM61.2912 46.0438C62.3665 47.5476 62.0217 49.6381 60.5213 50.7156C59.0205 51.793 56.9315 51.4495 55.8562 49.9457C54.781 48.4419 55.1264 46.3467 56.6272 45.2692C58.1277 44.1921 60.216 44.5403 61.2912 46.0438Z" fill="#EBEBEB"/>
<path d="M231.328 96.2663L228.851 97.6982L229.289 98.4575C229.418 98.6809 229.406 98.9555 229.265 99.1716C229.187 99.2911 229.116 99.4148 229.051 99.5425C228.935 99.7719 228.704 99.9194 228.447 99.9194H227.572V102.785H228.447C228.704 102.785 228.935 102.933 229.051 103.162C229.116 103.29 229.187 103.413 229.265 103.533C229.406 103.749 229.418 104.024 229.289 104.247L228.851 105.006L231.328 106.438L231.766 105.675C231.895 105.452 232.14 105.328 232.397 105.342C232.467 105.345 232.537 105.347 232.607 105.347C232.678 105.347 232.748 105.345 232.818 105.342C233.074 105.328 233.318 105.451 233.446 105.673L233.887 106.438L236.363 105.006L235.925 104.244C235.796 104.021 235.809 103.746 235.95 103.53C236.027 103.411 236.099 103.288 236.163 103.161C236.28 102.932 236.511 102.785 236.767 102.785H237.642V99.9191H236.767C236.511 99.9191 236.28 99.7719 236.163 99.5429C236.099 99.4158 236.027 99.2924 235.95 99.1736C235.809 98.9574 235.796 98.6829 235.925 98.4591L236.363 97.6975L233.887 96.2656L233.448 97.0276C233.32 97.2503 233.076 97.3731 232.819 97.3599C232.749 97.3563 232.678 97.3546 232.607 97.3546C232.536 97.3546 232.466 97.3563 232.397 97.3599C232.139 97.3731 231.894 97.25 231.766 97.0266L231.328 96.2663ZM232.608 99.0056C233.901 99.0056 234.949 100.055 234.949 101.351C234.949 102.647 233.901 103.699 232.608 103.699C231.314 103.699 230.264 102.647 230.264 101.351C230.264 100.055 231.314 99.0056 232.608 99.0056Z" fill="#EBEBEB"/>
<path d="M70.9159 30.0846L68.6448 31.8247L69.1767 32.521C69.3331 32.7259 69.3562 32.9998 69.2449 33.2321C69.183 33.3605 69.1283 33.4925 69.0805 33.6278C68.9949 33.87 68.7845 34.0462 68.5299 34.0796L67.6621 34.1928L68.0313 37.0347L68.8991 36.9215C69.1537 36.8882 69.402 37.0047 69.5466 37.2169C69.6272 37.3353 69.7139 37.4489 69.8064 37.5571C69.9737 37.7531 70.0211 38.0241 69.9223 38.262L69.5861 39.0718L72.226 40.1714L72.5623 39.3582C72.6611 39.12 72.888 38.9662 73.1448 38.9457C73.2147 38.9401 73.2845 38.9329 73.3543 38.924C73.4241 38.9147 73.4936 38.9042 73.5621 38.8913C73.8144 38.8451 74.0719 38.9348 74.2277 39.1388L74.7635 39.8404L77.0349 38.1003L76.5024 37.4017C76.346 37.1967 76.3232 36.9225 76.4352 36.6902C76.4968 36.5622 76.5515 36.4308 76.5992 36.2962C76.6852 36.0543 76.8953 35.8784 77.1495 35.8451L78.0177 35.7319L77.6485 32.8899L76.7804 33.0031C76.5261 33.0364 76.2781 32.9203 76.1332 32.7081C76.0529 32.5903 75.9662 32.4774 75.874 32.3695C75.7064 32.1735 75.6583 31.9025 75.7571 31.6643L76.0937 30.8525L73.4534 29.7529L73.1165 30.5651C73.0181 30.8027 72.7915 30.9558 72.5356 30.9759C72.4658 30.9815 72.3953 30.9888 72.3245 30.998C72.2547 31.0073 72.1852 31.0178 72.1163 31.0304C71.8628 31.0769 71.6042 30.9865 71.4475 30.7812L70.9159 30.0846ZM72.5376 32.6355C73.82 32.4682 74.9941 33.3737 75.161 34.6587C75.328 35.9437 74.4246 37.1225 73.1422 37.2898C71.8598 37.4571 70.6831 36.5496 70.5161 35.2646C70.3491 33.9796 71.2551 32.8028 72.5376 32.6355Z" fill="#EBEBEB"/>
<path d="M53.9604 104.539C54.0901 101.346 54.0381 98.1464 53.8293 94.9576C53.3985 88.3804 52.318 81.8543 50.834 75.4368C49.9988 71.8243 48.97 68.2732 47.8984 64.7257C47.8661 64.6184 47.6955 64.6488 47.7251 64.7603C51.0395 77.266 53.7588 90.1717 53.5718 103.171C53.5194 106.809 53.0992 110.383 52.7544 113.998C52.7451 114.094 52.9039 114.133 52.926 114.034C53.6097 110.94 53.832 107.699 53.9604 104.539Z" fill="#EBEBEB"/>
<path d="M47.7246 64.7607C47.7246 64.7607 42.7036 77.5311 43.8276 80.5328C44.9519 83.5344 47.2695 84.1746 47.2695 84.1746C47.2695 84.1746 44.1974 88.5696 46.344 92.6916C48.491 96.8136 53.2607 96.6189 53.5775 101.293C53.5775 101.293 53.8433 81.7501 47.7246 64.7607Z" fill="#EBEBEB"/>
<path d="M53.0319 93.2236C53.0381 93.2022 53.0365 93.1794 53.0266 93.1567C52.3215 84.4734 50.7842 75.8171 48.1564 67.4671C48.1489 67.4424 48.1084 67.4503 48.1149 67.4761C49.1099 71.2117 49.9951 74.9674 50.7516 78.7436C50.0995 78.0707 49.2465 77.6839 48.3547 77.4044C48.3379 77.3992 48.3297 77.4232 48.3455 77.4302C49.2742 77.8324 50.1637 78.2987 50.8201 79.0871C50.9666 79.8273 51.1102 80.5678 51.2466 81.3093C50.1245 80.0527 48.5684 79.4293 47.0113 78.8366C46.9893 78.8284 46.9778 78.862 46.9992 78.871C48.6208 79.5326 50.2362 80.385 51.3348 81.7852C51.7179 83.9044 52.0531 86.0313 52.3433 88.1644C51.5229 87.3058 50.5105 86.7286 49.3493 86.4451C49.3144 86.4365 49.2949 86.4883 49.3302 86.4986C50.5234 86.8428 51.5496 87.512 52.3666 88.4476C52.3726 88.4542 52.3788 88.4575 52.3854 88.4617C52.4859 89.2122 52.5807 89.9636 52.6696 90.716C52.038 90.1761 51.3398 89.7653 50.5711 89.4475C50.5507 89.4392 50.5398 89.4709 50.5596 89.4795C51.3404 89.8124 52.0429 90.2926 52.6614 90.8734C52.6703 90.8816 52.6792 90.8806 52.6881 90.8839C52.7717 91.5991 52.855 92.3145 52.9272 93.0313C51.7761 91.6413 50.3528 90.6355 48.6686 89.9844C48.6356 89.9715 48.6188 90.022 48.6504 90.0358C50.2879 90.7493 51.7314 91.8796 52.8475 93.2718C52.8781 93.3101 52.9179 93.3164 52.9532 93.3052C53.0619 94.4041 53.159 95.5046 53.2394 96.6075C53.2404 96.6226 53.2651 96.624 53.2644 96.6088C53.2015 95.4799 53.1228 94.3516 53.0319 93.2236Z" fill="white"/>
<path d="M48.9975 76.1349C48.1268 75.5353 47.0202 75.2792 45.9808 75.1925C45.9558 75.1905 45.9538 75.2274 45.9782 75.2307C47.0594 75.3918 47.9677 75.7838 48.961 76.2069C49.0041 76.2257 49.0351 76.161 48.9975 76.1349Z" fill="white"/>
<path d="M49.6068 89.6554C48.9179 89.2409 48.1318 89.0069 47.3423 88.8792C47.3147 88.8749 47.3124 88.9175 47.3394 88.9221C48.141 89.0676 48.851 89.3534 49.5795 89.7092C49.6105 89.7247 49.6361 89.6732 49.6068 89.6554Z" fill="white"/>
<path d="M67.1602 80.7408C65.0663 82.2159 63.0567 83.917 61.3488 85.831C59.5283 87.8711 58.2004 90.187 57.273 92.7571C55.3731 98.0222 54.3317 103.726 54.2369 109.322C54.1835 112.459 54.4621 115.571 55.132 118.637C55.1564 118.749 55.3227 118.717 55.3059 118.605C54.4872 113.21 54.5171 107.705 55.3968 102.321C56.26 97.0382 57.6145 91.2906 60.9658 86.9973C62.7906 84.6595 65.066 82.8201 67.3154 80.9193C67.4329 80.8193 67.2818 80.655 67.1602 80.7408Z" fill="#EBEBEB"/>
<path d="M54.9756 105.518C54.9756 105.518 56.7 102.608 59.2118 100.092C61.7236 97.5756 63.8393 95.7874 64.1656 94.1232C64.4923 92.459 61.6495 91.2334 61.6495 91.2334C61.6495 91.2334 65.1256 91.8587 66.0768 90.3968C67.0279 88.9352 67.487 80.4688 67.487 80.4688C67.487 80.4688 61.1634 84.9927 58.2169 91.3343C55.2707 97.6759 54.9756 105.518 54.9756 105.518Z" fill="#EBEBEB"/>
<path d="M65.2988 82.6395C62.6381 85.258 59.9603 88.0485 58.3933 91.4888C57.8562 92.6682 57.3991 93.8915 56.9966 95.1376C56.9956 95.1396 56.9956 95.1415 56.9947 95.1432C56.914 95.3933 56.832 95.6431 56.7559 95.8949C56.7483 95.9075 56.7444 95.9213 56.743 95.9362C55.9685 98.5056 55.4208 101.162 54.9465 103.758C54.9436 103.775 54.9689 103.784 54.9722 103.766C55.2446 102.445 55.5453 101.111 55.8808 99.7813C55.8927 99.7817 55.9055 99.7794 55.9187 99.7737C56.4565 99.5474 56.9976 99.4055 57.5782 99.3517C57.6161 99.3484 57.6131 99.2824 57.5746 99.2844C57.0144 99.3114 56.4657 99.4098 55.9332 99.5843C56.2395 98.3851 56.5724 97.1892 56.9469 96.0108C58.1677 95.7111 59.4419 95.5494 60.6973 95.5194C60.7102 95.5191 60.7125 95.4996 60.699 95.4989C59.4334 95.4399 58.2438 95.5491 57.0111 95.8127C57.0763 95.6105 57.1442 95.4095 57.2117 95.2079C58.036 95.0198 58.8639 94.8614 59.7074 94.7841C59.7225 94.7828 59.7212 94.7568 59.7061 94.7571C58.8801 94.7795 58.066 94.8663 57.2624 95.0547C57.6066 94.0347 57.9784 93.0289 58.3907 92.0491C58.7319 91.2386 59.1376 90.4691 59.5845 89.7262C60.2606 89.5728 60.916 89.4269 61.6089 89.3646C61.628 89.3629 61.6261 89.3322 61.6073 89.3309C60.9783 89.29 60.3232 89.3372 59.7146 89.5183C60.0472 88.9801 60.3967 88.4528 60.7708 87.9419C62.1889 87.6271 63.6264 87.3351 65.0772 87.608C65.1022 87.6126 65.1114 87.5703 65.0867 87.5641C63.7058 87.2001 62.3351 87.4103 60.9611 87.6825C61.111 87.4826 61.2645 87.2852 61.4192 87.0889C62.2897 86.8193 63.1555 86.6886 64.0687 86.6718C64.0875 86.6714 64.0905 86.6444 64.071 86.6424C63.2375 86.5625 62.4063 86.6434 61.6007 86.8622C62.7731 85.4026 64.0681 84.0318 65.3482 82.6761C65.4081 82.6141 65.362 82.5774 65.2988 82.6395Z" fill="white"/>
<path d="M65.2282 88.4103C64.8119 88.3658 64.3888 88.3192 63.9705 88.3664C63.9198 88.372 63.9241 88.4549 63.9751 88.4562C64.3914 88.4684 64.8077 88.4374 65.2239 88.4598C65.2559 88.4618 65.2598 88.4136 65.2282 88.4103Z" fill="white"/>
<path d="M60.6769 96.6233C60.0123 96.6151 59.3487 96.7943 58.7279 97.0154C58.7124 97.021 58.721 97.047 58.7371 97.0431C59.3806 96.8896 60.0317 96.8273 60.6818 96.7197C60.7352 96.7111 60.7325 96.624 60.6769 96.6233Z" fill="white"/>
<path d="M59.3127 93.7858C59.043 93.7716 58.7512 93.8191 58.4854 93.8607C58.4581 93.865 58.4597 93.9095 58.488 93.9102C58.7568 93.9148 59.0525 93.9221 59.3173 93.8712C59.3641 93.862 59.3621 93.7884 59.3127 93.7858Z" fill="white"/>
<path d="M36.4377 89.7251C38.4726 90.434 40.4911 91.3454 42.315 92.4988C44.259 93.728 45.8678 95.2949 47.2112 97.1597C49.9631 100.981 52.1215 105.356 53.4892 109.862C54.2559 112.389 54.7486 114.972 54.9136 117.608C54.9195 117.704 54.7776 117.717 54.7654 117.622C54.1835 113.066 52.8895 108.619 50.9356 104.465C49.0185 100.389 46.5966 96.0515 42.8939 93.3531C40.8778 91.884 38.6123 90.9224 36.3534 89.905C36.2351 89.8518 36.3194 89.6842 36.4377 89.7251Z" fill="#EBEBEB"/>
<path d="M52.014 106.955C52.014 106.955 49.9471 105 47.3342 103.545C44.7209 102.09 42.5964 101.133 41.9483 99.8619C41.3001 98.5907 43.318 96.9404 43.318 96.9404C43.318 96.9404 40.6491 98.2515 39.5422 97.2889C38.4353 96.3263 36.1108 89.5811 36.1108 89.5811C36.1108 89.5811 42.272 91.7775 46.1189 96.2273C49.9662 100.677 52.014 106.955 52.014 106.955Z" fill="#EBEBEB"/>
<path d="M51.6934 105.564C48.6118 99.7686 44.5001 94.5256 38.8659 91.0648C38.8633 91.0632 38.8609 91.0672 38.8633 91.0685C40.3466 92.0156 41.7133 93.1079 42.9872 94.3021C41.8467 94.2705 40.6858 94.4526 39.6747 95.0027C39.6523 95.0149 39.6685 95.0453 39.6915 95.0374C40.8185 94.6552 41.901 94.4044 43.0998 94.4602C43.1163 94.4609 43.1268 94.4523 43.1383 94.4457C43.3382 94.6358 43.5355 94.8288 43.7308 95.0235C43.138 95.0489 42.5383 95.1331 41.9606 95.2588C41.9452 95.2621 41.9494 95.2862 41.9652 95.2832C42.5903 95.1621 43.2006 95.1199 43.8349 95.1288C44.8673 96.1683 45.8293 97.2804 46.7409 98.4351C46.3292 98.375 45.8978 98.41 45.5033 98.5252C45.474 98.5337 45.4815 98.576 45.5122 98.572C45.961 98.5153 46.3879 98.5225 46.8334 98.5539C47.0021 98.769 47.1727 98.9829 47.338 99.2007C46.071 99.1241 44.8298 99.2462 43.5987 99.565C43.5806 99.5696 43.5856 99.5977 43.6043 99.594C44.8742 99.3442 46.1547 99.2644 47.445 99.3439C47.6021 99.5528 47.751 99.7676 47.9051 99.9788C47.1493 99.9557 46.4162 100.05 45.6791 100.234C45.6511 100.241 45.659 100.285 45.6877 100.279C46.4458 100.106 47.2168 100.062 47.9917 100.099C48.6547 101.014 49.2896 101.95 49.8999 102.896C49.5768 102.83 49.2376 102.866 48.9227 102.955C48.9059 102.96 48.9106 102.984 48.928 102.982C49.2906 102.939 49.6292 102.986 49.9852 103.032C50.5338 103.888 51.0644 104.753 51.5726 105.622C51.616 105.696 51.7343 105.641 51.6934 105.564Z" fill="white"/>
<path d="M46.9 100.756C46.2976 100.704 45.6854 100.799 45.11 100.976C45.0936 100.981 45.0975 101.006 45.1153 101.002C45.7078 100.893 46.295 100.852 46.8954 100.82C46.9346 100.818 46.9421 100.76 46.9 100.756Z" fill="white"/>
<path d="M41.5254 93.6934C41.2531 93.6623 40.9688 93.698 40.6998 93.7415C40.6678 93.7468 40.6777 93.794 40.7093 93.7907C40.9807 93.7617 41.2485 93.7719 41.5202 93.7636C41.5643 93.7623 41.5715 93.6986 41.5254 93.6934Z" fill="white"/>
<path d="M59.9606 126.12H46.0532L48.0361 111.565L48.543 107.833H57.4709L57.9774 111.565L59.9606 126.12Z" fill="#DBDBDB"/>
<path d="M57.9774 111.565H48.0361L48.543 107.833H57.4709L57.9774 111.565Z" fill="#C7C7C7"/>
<path d="M58.7473 106.538H47.2661V109.699H58.7473V106.538Z" fill="#DBDBDB"/>
<path d="M37.2119 126.12L62.2442 126.04L87.2765 126.011L137.341 125.955L187.406 126.01L212.438 126.039L237.47 126.12L212.438 126.201L187.406 126.23L137.341 126.284L87.2765 126.229L62.2442 126.2L37.2119 126.12Z" fill="#263238"/>
<path d="M138 150.716C190.154 150.716 232.434 146.074 232.434 140.347C232.434 134.621 190.154 129.979 138 129.979C85.8458 129.979 43.5664 134.621 43.5664 140.347C43.5664 146.074 85.8458 150.716 138 150.716Z" fill="#EBEBEB"/>
<path d="M116.018 138.628C115.25 138.889 93.2457 138.966 92.4046 138.438C92.0845 138.239 91.8866 135.029 91.7568 131.143C91.7288 130.303 91.7048 129.437 91.6857 128.556L89.9014 116.797L104.611 116.702L106 128.465L105.943 131.052C105.943 131.052 114.381 134.798 115.241 135.477C116.098 136.155 116.786 138.368 116.018 138.628Z" fill="#EB9481"/>
<path d="M116.017 138.628C115.25 138.888 93.2456 138.966 92.4045 138.437C92.0159 138.194 91.8038 133.505 91.6855 128.556L105.999 128.464L105.943 131.051C105.943 131.051 114.381 134.797 115.241 135.476C116.097 136.155 116.785 138.368 116.017 138.628Z" fill="white"/>
<path d="M116.018 138.629C115.25 138.889 93.2458 138.966 92.4046 138.438C92.0845 138.239 91.8866 135.029 91.7568 131.143L105.943 131.052C105.943 131.052 114.381 134.798 115.241 135.477C116.098 136.156 116.786 138.368 116.018 138.629Z" fill="#A6A6A6"/>
<path d="M115.699 137.748C112.01 137.67 97.1247 137.706 93.4724 137.91C93.4428 137.911 93.4428 137.931 93.4724 137.933C97.127 138.09 112.012 137.934 115.699 137.809C115.777 137.806 115.777 137.75 115.699 137.748Z" fill="#263238"/>
<path d="M113.824 134.688C112.949 134.656 112.095 135.075 111.62 135.599C111.164 136.102 110.774 136.809 110.803 137.575C110.804 137.597 110.844 137.598 110.847 137.575C111.053 136.128 112.361 134.853 113.824 134.735C113.854 134.732 113.854 134.69 113.824 134.688Z" fill="#263238"/>
<path d="M107.376 131.414C105.899 131.399 104.189 131.927 103.276 133.14C103.241 133.187 103.308 133.237 103.351 133.214C104.684 132.52 105.951 132.002 107.401 131.596C107.504 131.568 107.481 131.415 107.376 131.414Z" fill="#263238"/>
<path d="M108.517 131.856C107.041 131.84 105.331 132.369 104.418 133.582C104.382 133.629 104.45 133.678 104.493 133.656C105.825 132.962 107.092 132.444 108.543 132.038C108.645 132.009 108.623 131.857 108.517 131.856Z" fill="#263238"/>
<path d="M109.658 132.297C108.182 132.282 106.472 132.81 105.559 134.023C105.523 134.07 105.591 134.12 105.634 134.097C106.966 133.403 108.233 132.885 109.684 132.479C109.787 132.451 109.764 132.298 109.658 132.297Z" fill="#263238"/>
<path d="M110.8 132.738C109.323 132.722 107.614 133.25 106.7 134.464C106.665 134.51 106.732 134.56 106.776 134.537C108.108 133.843 109.375 133.325 110.826 132.92C110.928 132.891 110.905 132.739 110.8 132.738Z" fill="#263238"/>
<path d="M94.3996 134.396C92.7434 134.406 92.7569 136.986 94.4161 136.975C96.0723 136.964 96.0588 134.385 94.3996 134.396Z" fill="#263238"/>
<path d="M108.957 127.461C108.208 126.843 107.269 127.453 106.81 128.099C106.068 129.146 105.56 130.612 105.482 131.887C105.48 131.919 105.504 131.931 105.528 131.929C105.56 132.035 105.685 132.124 105.794 132.048C106.842 131.316 108.054 130.663 108.847 129.63C109.31 129.027 109.666 128.046 108.957 127.461ZM107.157 130.612C106.65 130.984 106.128 131.33 105.635 131.721C105.896 130.983 106.124 130.238 106.459 129.526C106.619 129.187 106.79 128.841 106.995 128.527C107.314 128.037 108.759 126.795 108.911 128.404C108.995 129.291 107.761 130.167 107.157 130.612Z" fill="#263238"/>
<path d="M101.816 132.448C103.102 132.642 104.427 132.27 105.689 132.069C105.82 132.049 105.849 131.898 105.799 131.799C105.817 131.784 105.826 131.758 105.803 131.737C104.864 130.872 103.484 130.168 102.225 129.93C101.447 129.783 100.348 129.996 100.236 130.962C100.13 131.876 101.065 132.335 101.816 132.448ZM100.921 131.609C99.918 130.344 101.818 130.235 102.387 130.366C102.753 130.451 103.115 130.581 103.465 130.714C104.199 130.994 104.879 131.373 105.578 131.723C104.952 131.784 104.336 131.898 103.713 131.981C102.97 132.081 101.475 132.307 100.921 131.609Z" fill="#263238"/>
<path d="M68.2861 62.4365C68.2861 62.4365 85.3687 91.5557 85.8261 93.6001C86.5289 96.7417 90.2546 127.767 90.2546 127.767L108.029 127.446C108.029 127.446 104.966 100.092 102.064 91.0799C99.9743 84.5884 84.8987 63.0599 84.8987 63.0599L68.2861 62.4365Z" fill="#37474F"/>
<path d="M106.413 124.715C103.86 124.696 94.8147 124.594 91.417 124.912C91.391 124.914 91.392 124.957 91.4177 124.961C92.5871 125.129 103.862 124.867 106.414 124.785C106.462 124.784 106.461 124.715 106.413 124.715Z" fill="#263238"/>
<path d="M71.202 65.1084C72.3214 66.8677 73.5024 68.5903 74.6469 70.3343C75.792 72.079 76.9328 73.8264 78.0588 75.5833C80.3091 79.0948 82.5008 82.643 84.6523 86.2132C85.6614 87.8877 86.6224 89.5776 87.3153 91.4041C88.0017 93.2132 88.469 95.0955 88.8148 96.993C89.1632 98.9047 89.3924 100.835 89.6091 102.764C89.8397 104.818 90.0669 106.873 90.2958 108.927C90.7641 113.131 91.2324 117.335 91.7007 121.538C91.758 122.054 91.8144 122.57 91.8661 123.086C91.8736 123.162 91.7386 123.177 91.7291 123.101C91.2061 118.924 90.7717 114.734 90.2965 110.551C90.06 108.469 89.8235 106.387 89.5871 104.305C89.3671 102.368 89.158 100.43 88.8583 98.5038C88.5635 96.6119 88.1811 94.7276 87.6065 92.8964C87.0061 90.9831 86.1557 89.1869 85.149 87.4471C83.089 83.8874 80.9095 80.3884 78.729 76.8987C76.5297 73.3789 74.3119 69.8687 72.0119 66.4106C71.728 65.9836 71.4415 65.5592 71.147 65.1388C71.124 65.1058 71.1803 65.0744 71.202 65.1084Z" fill="#263238"/>
<path d="M73.886 140.346C73.0755 140.296 52.1513 131.801 51.5681 130.996C51.5486 130.969 51.5371 130.916 51.5361 130.841C51.5401 130.12 52.9892 127.597 54.2001 124.285C54.2759 124.074 54.816 123.091 55.5655 121.766C57.6258 118.126 61.2716 111.892 61.2716 111.892L74.9484 117.337L68.402 127.156L67.383 129.532C67.383 129.532 73.802 136.18 74.3441 137.131C74.8829 138.082 74.6935 140.392 73.886 140.346Z" fill="#EB9481"/>
<path d="M73.886 140.346C73.0755 140.296 52.1513 131.801 51.5681 130.996C51.5486 130.969 51.5371 130.916 51.5361 130.841C51.5401 130.12 52.9892 127.596 54.2001 124.285C54.2759 124.073 54.816 123.091 55.5655 121.766L68.4023 127.156L67.3833 129.532C67.3833 129.532 73.8024 136.179 74.3444 137.13C74.8829 138.082 74.6935 140.392 73.886 140.346Z" fill="white"/>
<path d="M73.8847 140.345C73.0756 140.297 52.1507 131.801 51.5688 130.995C51.3465 130.691 52.2821 127.827 54.1988 124.286L67.3834 129.534C67.3834 129.534 73.8024 136.179 74.3458 137.131C74.8846 138.082 74.6939 140.392 73.8847 140.345Z" fill="#A6A6A6"/>
<path d="M73.9189 139.408C70.5287 137.95 56.7168 132.387 53.2548 131.203C53.2268 131.193 53.2193 131.212 53.2463 131.224C56.5752 132.744 70.4315 138.194 73.8965 139.464C73.9696 139.491 73.9903 139.439 73.9189 139.408Z" fill="#263238"/>
<path d="M73.3257 135.867C72.5271 135.508 71.5789 135.576 70.9423 135.882C70.3308 136.177 69.705 136.686 69.4448 137.407C69.4373 137.428 69.4748 137.443 69.4863 137.424C70.2188 136.159 71.9089 135.469 73.3089 135.91C73.3369 135.919 73.3534 135.879 73.3257 135.867Z" fill="#263238"/>
<path d="M68.5746 130.408C67.2119 129.839 65.4292 129.686 64.1283 130.467C64.0779 130.497 64.1217 130.569 64.1708 130.564C65.6656 130.421 67.0337 130.418 68.5305 130.587C68.6362 130.599 68.6721 130.449 68.5746 130.408Z" fill="#263238"/>
<path d="M69.4672 131.246C68.1044 130.677 66.3218 130.524 65.0209 131.305C64.9705 131.335 65.0143 131.407 65.0634 131.402C66.5579 131.259 67.9263 131.255 69.4231 131.424C69.5288 131.437 69.5647 131.287 69.4672 131.246Z" fill="#263238"/>
<path d="M70.3603 132.084C68.9975 131.515 67.2148 131.362 65.914 132.143C65.8636 132.173 65.9074 132.244 65.9564 132.24C67.451 132.097 68.8193 132.093 70.3162 132.263C70.4215 132.274 70.4578 132.125 70.3603 132.084Z" fill="#263238"/>
<path d="M71.2526 132.922C69.8898 132.353 68.1071 132.2 66.8066 132.981C66.7562 133.011 66.7997 133.082 66.8491 133.078C68.3439 132.935 69.712 132.931 71.2088 133.101C71.3142 133.112 71.3504 132.963 71.2526 132.922Z" fill="#263238"/>
<path d="M55.4296 128.294C53.8903 127.681 52.9372 130.077 54.4791 130.691C56.0188 131.304 56.9719 128.908 55.4296 128.294Z" fill="#263238"/>
<path d="M71.5208 127.338C71.0575 126.484 69.9585 126.696 69.2916 127.123C68.2114 127.814 67.1921 128.982 66.6424 130.134C66.6289 130.163 66.6464 130.183 66.6694 130.191C66.6592 130.301 66.7422 130.43 66.8716 130.401C68.1178 130.116 69.4852 129.967 70.6069 129.308C71.2617 128.923 71.9588 128.147 71.5208 127.338ZM68.6724 129.582C68.0628 129.737 67.4496 129.861 66.846 130.039C67.3643 129.453 67.8547 128.847 68.4317 128.314C68.707 128.059 68.9948 127.803 69.3028 127.589C69.782 127.254 71.586 126.647 71.125 128.195C70.8707 129.049 69.3989 129.398 68.6724 129.582Z" fill="#263238"/>
<path d="M63.0336 129.277C64.1533 129.939 65.5204 130.093 66.7656 130.382C66.8947 130.412 66.978 130.283 66.9685 130.172C66.9915 130.165 67.0093 130.144 66.9958 130.116C66.4494 128.961 65.4338 127.791 64.3559 127.096C63.69 126.667 62.5916 126.452 62.126 127.305C61.685 128.112 62.3799 128.89 63.0336 129.277ZM62.5188 128.163C62.0627 126.613 63.8648 127.226 64.3427 127.562C64.65 127.777 64.9368 128.034 65.2115 128.29C65.7868 128.825 66.2756 129.432 66.7923 130.019C66.1893 129.84 65.5764 129.714 64.9671 129.557C64.2413 129.37 62.7701 129.018 62.5188 128.163Z" fill="#263238"/>
<path d="M69.4575 126.607L54.1484 120.412C54.1484 120.412 73.1299 92.4463 73.2705 90.365C73.3947 88.521 65.0576 72.476 64.7289 67.7999C64.3742 62.7536 66.7994 58.8477 69.4641 56.4238L85.2573 63.1509C85.2573 63.1509 83.5905 65.8229 80.9647 67.3102C80.9647 67.3102 89.0637 85.8565 88.6043 91.5589C88.1426 97.2923 69.4575 126.607 69.4575 126.607Z" fill="#37474F"/>
<path d="M70.1373 123.689C67.9235 122.735 68.5723 122.977 66.3477 122.049C65.2592 121.594 58.1032 118.613 57.0137 118.368C56.9897 118.362 56.9742 118.4 56.9953 118.413C57.9477 118.998 65.1542 121.853 66.2512 122.286C68.493 123.172 67.859 122.894 70.1106 123.754C70.1531 123.77 70.1788 123.707 70.1373 123.689Z" fill="#263238"/>
<path d="M83.5647 66.9707C81.9193 67.3251 80.3053 67.9076 78.7548 68.5336C78.6938 68.5584 78.7225 68.6488 78.7877 68.6296C80.4021 68.1574 82.0441 67.7162 83.6289 67.1582C83.7534 67.1143 83.6908 66.9433 83.5647 66.9707Z" fill="#263238"/>
<path d="M81.691 66.3201C81.5353 66.592 81.4032 66.8784 81.2853 67.1679C81.1941 67.3926 81.0768 67.6335 81.0781 67.8787C81.0785 67.9262 81.1424 67.9377 81.1717 67.9087C81.3551 67.7279 81.4526 67.4639 81.5685 67.2385C81.7029 66.9774 81.8432 66.7187 81.97 66.4537C82.054 66.2782 81.7869 66.1524 81.691 66.3201Z" fill="#263238"/>
<path d="M81.8828 64.8321C81.9797 64.5885 82.0771 64.3453 82.1792 64.1041C82.2849 63.8543 82.4078 63.6081 82.4941 63.351C82.5076 63.3104 82.5718 63.3378 82.5557 63.3787C82.4592 63.6226 82.3963 63.8827 82.3189 64.1335C82.2411 64.3852 82.1591 64.6354 82.0761 64.8855C81.9214 65.3512 81.732 65.8132 81.5324 66.2626C81.7906 66.2593 82.0564 66.2478 82.2912 66.1306C82.5461 66.0032 82.7006 65.732 82.826 65.4868C82.9654 65.2145 83.0935 64.936 83.2367 64.6657C83.3951 64.3668 83.5703 64.0711 83.6747 63.7474C83.6879 63.7064 83.7508 63.7338 83.7363 63.7747C83.4985 64.443 83.2647 65.1103 82.8949 65.726C82.7496 65.9679 82.6317 66.2197 82.364 66.3144C82.0765 66.4161 81.762 66.3963 81.4626 66.3745C81.4257 66.3847 81.378 66.361 81.3908 66.3161C81.5321 65.8181 81.6912 65.3132 81.8828 64.8321Z" fill="#263238"/>
<path d="M81.2114 67.9144C81.7726 69.1067 82.2662 70.2947 82.7909 71.4827C83.3036 72.6436 83.7838 73.8181 84.2498 74.9981C85.1917 77.3831 86.0355 79.8112 86.7755 82.2667C87.1417 83.4818 87.4789 84.7054 87.7839 85.9373C88.0895 87.1725 88.3882 88.4202 88.515 89.6888C88.6421 90.9612 88.5516 92.2195 88.1979 93.4501C87.8389 94.6985 87.366 95.7888 86.8041 96.9567C86.461 97.6705 86.3427 97.5741 86.5091 97.2137C86.9803 96.1917 88.2147 93.0937 88.1251 90.489C88.0819 89.2324 87.8244 87.9949 87.5412 86.7739C87.252 85.5275 86.9257 84.29 86.5697 83.061C85.8682 80.6398 85.035 78.2665 84.1777 75.8971C83.6975 74.5695 83.1821 73.2554 82.6947 71.9308C82.2037 70.5963 81.6975 69.3954 81.1528 67.9381C81.1383 67.8998 81.1939 67.8774 81.2114 67.9144Z" fill="#263238"/>
<path d="M69.5873 63.976C69.8617 63.8744 70.242 64.0427 70.5216 64.0895C70.8803 64.1499 71.2429 64.1865 71.6065 64.1991C71.9648 64.2113 72.3261 64.1968 72.6827 64.1618C73.0394 64.1271 73.4033 64.0829 73.7132 63.8889C74.2355 63.5622 74.6729 62.9867 75.0269 62.491C75.4159 61.9462 75.8196 61.3198 76.0515 60.6889C76.0656 60.6503 76.1213 60.6767 76.1091 60.7146C75.9938 61.0826 75.9082 61.4535 75.7617 61.8128C75.6237 62.1511 75.4455 62.4745 75.2565 62.786C74.9034 63.3681 74.4983 63.9895 73.893 64.3357C73.2577 64.699 72.4394 64.6772 71.731 64.6363C71.3213 64.6126 70.9132 64.5584 70.5114 64.4736C70.2216 64.4123 69.7339 64.3657 69.5491 64.1106C69.5159 64.0658 69.5333 63.9961 69.5873 63.976Z" fill="#263238"/>
<path d="M58.5187 117.489C61.0351 113.673 63.5048 109.826 65.93 105.951C68.3615 102.066 70.7481 98.1523 73.1016 94.2193C73.6644 93.2788 74.3148 92.3387 74.6774 91.2969C75.0716 90.1643 74.8477 89.0671 74.4907 87.9589C73.836 85.9264 73.0205 83.9488 72.1402 82.0047C71.2573 80.0551 70.3068 78.1375 69.3715 76.2129C68.4441 74.3038 67.4571 72.3885 66.7536 70.3825C66.0818 68.4662 65.8259 66.4789 66.3417 64.4913C66.8534 62.5192 67.9603 60.7484 69.1163 59.0958C69.4213 58.6599 69.7318 58.2279 70.0378 57.7926C70.0611 57.7596 70.1112 57.7996 70.0868 57.8326C68.813 59.5555 67.5707 61.3791 66.8238 63.402C66.4546 64.4015 66.2155 65.4539 66.1921 66.5218C66.1681 67.6052 66.3713 68.68 66.6898 69.7119C67.3092 71.7183 68.287 73.6181 69.198 75.5031C70.1293 77.4299 71.0857 79.3453 71.9838 81.2883C72.8875 83.2432 73.7326 85.2278 74.4271 87.2679C74.7364 88.1761 75.0812 89.1265 75.0608 90.0996C75.0384 91.1655 74.5305 92.1252 74.0049 93.0238C71.7154 96.9362 69.3386 100.8 66.9325 104.641C64.5171 108.497 62.0541 112.322 59.5528 116.123C59.2373 116.602 58.9211 117.081 58.6046 117.559C58.5654 117.618 58.4798 117.548 58.5187 117.489Z" fill="#263238"/>
<path d="M86.1344 45.3653C87.5598 48.5007 94.7606 52.821 98.1333 53.2853C100.56 53.6193 107.927 53.7341 110.454 53.3477C113.413 52.8949 111.152 44.8898 109.403 45.0947C104.595 45.658 100.512 46.285 99.2287 46.285C97.6617 46.285 89.1801 43.5573 88.1582 43.1735C85.6569 42.234 85.3259 43.587 86.1344 45.3653Z" fill="#EB9481"/>
<path d="M86.1789 46.1949C87.9833 48.8709 93.9828 53.2454 93.9828 53.2454L94.8153 51.3971L97.5705 45.2871C97.5705 45.2871 92.0611 43.545 88.4355 42.7689C87.9458 42.6636 87.514 42.6006 87.1382 42.5837C84.8237 42.4587 84.6228 43.8928 86.1789 46.1949Z" fill="#5864FF"/>
<path d="M86.1789 46.1949C87.9833 48.8709 93.9828 53.2454 93.9828 53.2454L94.8153 51.3971C92.5782 48.795 89.1248 44.8512 87.1382 42.5837C84.8237 42.4587 84.6228 43.8928 86.1789 46.1949Z" fill="#263238"/>
<path d="M92.9013 52.0102C93.3585 50.8872 95.3954 46.3563 95.9009 45.4056C95.9361 45.3396 95.9859 45.3449 95.9579 45.4178C94.6685 48.8138 93.45 50.9459 92.9458 52.0254C92.9333 52.0524 92.8898 52.0386 92.9013 52.0102Z" fill="#263238"/>
<path d="M108.521 45.1818C111.447 44.797 115.067 44.1393 118.132 45.4431C118.733 45.6989 118.951 46.148 118.951 46.148C120.335 46.708 120.487 47.531 120.487 47.531C121.617 48.4481 121.657 49.3114 121.657 49.3114C121.657 49.3114 123.275 49.9866 123.03 51.0343C122.759 52.2101 120.539 51.0317 118.923 51.1317C115.221 51.3604 110.023 52.7233 108.961 52.8955L108.521 45.1818Z" fill="#EB9481"/>
<path d="M114.876 48.6393C115.966 48.5938 117.037 48.5205 118.128 48.6231C119.326 48.7357 120.459 49.0456 121.621 49.332C121.657 49.3409 121.673 49.2914 121.639 49.2769C119.618 48.4248 117.026 48.2011 114.873 48.5898C114.821 48.5991 114.821 48.6416 114.876 48.6393Z" fill="#263238"/>
<path d="M114.413 46.4205C115.477 46.435 117.347 46.473 120.476 47.5653C120.486 47.5689 120.495 47.5527 120.484 47.5471C118.547 46.5673 116.56 46.2189 114.414 46.3697C114.347 46.3743 114.342 46.4195 114.413 46.4205Z" fill="#263238"/>
<path d="M114.187 45.2226C115.995 45.3166 117.123 45.6051 118.941 46.1529C118.952 46.1558 118.96 46.139 118.949 46.1344C116.947 45.2945 116.126 45.217 114.181 45.1602C114.114 45.1579 114.116 45.219 114.187 45.2226Z" fill="#263238"/>
<path d="M114.48 51.6904C114.009 51.9115 114.122 52.1604 115.022 52.3692C115.932 52.5824 119.66 52.6395 119.528 53.9443C119.399 55.2541 114.124 55.0865 112.652 54.6238C111.179 54.1644 108.961 52.8959 108.961 52.8959C109.994 52.721 112.459 52.0587 114.48 51.6904Z" fill="#EB9481"/>
<path d="M90.0503 50.3632C90.0276 50.9268 89.9723 51.5007 89.8933 52.0696C89.9008 52.0491 89.9097 52.029 89.9173 52.0085C90.027 51.7115 90.1337 51.407 90.2667 51.1199C90.2736 51.1047 90.3003 51.109 90.297 51.1274C90.2391 51.439 90.13 51.7518 90.0115 52.0458C89.9548 52.1861 89.8972 52.3263 89.8366 52.4653C89.7958 52.7187 89.7503 52.9705 89.6993 53.2183C89.6021 53.6902 89.1572 55.6976 89.0561 56.0369C89.0347 56.1081 88.95 56.092 88.9553 56.0121C88.9797 55.6425 89.3528 53.5519 89.4282 53.0787C89.5731 52.1699 89.7724 51.2426 90.0151 50.3546C90.0207 50.3335 90.051 50.3434 90.0503 50.3632Z" fill="#263238"/>
<path d="M86.6169 65.3653C85.7386 65.8191 84.6057 66.522 79.5013 65.5152C79.1822 65.4501 78.8614 65.3716 78.54 65.2759C73.7531 63.8351 68.0122 58.1948 67.6885 57.7971C67.6885 57.7971 75.2905 45.4449 85.0163 41.5621C86.2184 41.0823 88.2086 42.0076 89.3102 43.1593C89.7037 43.5708 90.5574 46.6015 90.2297 49.0577C89.8987 51.5103 87.5015 64.9159 86.6169 65.3653Z" fill="#5864FF"/>
<path d="M85.9374 48.9453C85.9654 49.2106 85.9444 49.469 85.9121 49.7258C85.8736 49.9818 85.8232 50.2363 85.7237 50.4838C85.6954 50.2185 85.7165 49.9601 85.7491 49.7033C85.7879 49.4472 85.8383 49.1928 85.9374 48.9453Z" fill="white"/>
<path d="M82.622 57.3574C82.65 57.6227 82.6289 57.8811 82.5967 58.1382C82.5581 58.3943 82.5077 58.6487 82.4083 58.8962C82.38 58.6309 82.401 58.3725 82.4336 58.1154C82.4728 57.8594 82.5229 57.6049 82.622 57.3574Z" fill="white"/>
<path d="M76.9863 51C77.0143 51.2653 76.9932 51.5237 76.9609 51.7805C76.9224 52.0365 76.872 52.291 76.7725 52.5385C76.7442 52.2731 76.7653 52.0148 76.7979 51.7577C76.8371 51.5019 76.8875 51.2475 76.9863 51Z" fill="white"/>
<path d="M88.1093 56.9307C88.1373 57.196 88.1162 57.4544 88.084 57.7111C88.0454 57.9672 87.995 58.2216 87.8956 58.4691C87.8673 58.2038 87.8883 57.9454 87.9209 57.6883C87.9598 57.4326 88.0102 57.1782 88.1093 56.9307Z" fill="white"/>
<path d="M80.8726 49.9086C81.1373 49.8805 81.3952 49.9017 81.6518 49.934C81.9073 49.9726 82.1612 50.0231 82.4082 50.1227C82.1435 50.1511 81.8856 50.13 81.629 50.0973C81.3735 50.0584 81.1199 50.0079 80.8726 49.9086Z" fill="white"/>
<path d="M74.4766 55.9867C74.7413 55.9587 74.9992 55.9798 75.2554 56.0121C75.511 56.0507 75.7649 56.1012 76.0119 56.2009C75.7471 56.2293 75.4893 56.2081 75.233 56.1755C74.9771 56.1365 74.7236 56.086 74.4766 55.9867Z" fill="white"/>
<path d="M82.001 62.5639C82.2658 62.5358 82.5236 62.5569 82.7799 62.5893C83.0354 62.6279 83.2893 62.6784 83.5363 62.778C83.2715 62.8064 83.0137 62.7853 82.7575 62.7526C82.5019 62.7137 82.248 62.6632 82.001 62.5639Z" fill="white"/>
<path d="M72.5049 60.1742C72.7697 60.1462 73.0275 60.1673 73.2841 60.1996C73.5396 60.2382 73.7936 60.2887 74.0406 60.3884C73.7758 60.4168 73.5179 60.3956 73.2614 60.363C73.0058 60.3237 72.7519 60.2732 72.5049 60.1742Z" fill="white"/>
<path d="M85.8892 43.0336C86.1539 43.0055 86.4118 43.0267 86.6684 43.059C86.9239 43.0976 87.1775 43.1481 87.4245 43.2477C87.1597 43.2761 86.9019 43.255 86.6456 43.2223C86.3901 43.1831 86.1362 43.1326 85.8892 43.0336Z" fill="white"/>
<path d="M84.0306 45.1387C83.863 45.3459 83.666 45.5139 83.4618 45.6726C83.254 45.8264 83.039 45.9706 82.7939 46.0749C82.9612 45.8673 83.1585 45.6993 83.3627 45.5409C83.5705 45.3875 83.7859 45.2433 84.0306 45.1387Z" fill="white"/>
<path d="M73.8885 51.1201C73.7209 51.3274 73.5239 51.4953 73.3197 51.6541C73.1119 51.8078 72.8969 51.952 72.6519 52.0567C72.8192 51.8491 73.0164 51.6811 73.2206 51.5227C73.4287 51.3689 73.6438 51.2251 73.8885 51.1201Z" fill="white"/>
<path d="M86.5496 53.8223C86.382 54.0295 86.1851 54.1975 85.9809 54.3562C85.7731 54.51 85.558 54.6542 85.313 54.7585C85.4803 54.5509 85.6776 54.3829 85.8817 54.2245C86.0899 54.0714 86.3049 53.9272 86.5496 53.8223Z" fill="white"/>
<path d="M78.3504 58.9961C78.1828 59.2033 77.9858 59.3713 77.7817 59.53C77.5738 59.6838 77.3588 59.828 77.1138 59.9323C77.2811 59.7247 77.4783 59.5568 77.6825 59.3984C77.8903 59.2452 78.1054 59.101 78.3504 58.9961Z" fill="white"/>
<path d="M89.6921 46.752C89.5244 46.9592 89.3275 47.1272 89.1233 47.2859C88.9155 47.4397 88.7004 47.5839 88.4551 47.6882C88.6224 47.4806 88.8197 47.3126 89.0238 47.1542C89.2323 47.0008 89.4474 46.8566 89.6921 46.752Z" fill="white"/>
<path d="M89.5203 52.7489C89.3134 52.5809 89.1458 52.3836 88.9874 52.179C88.8339 51.9708 88.69 51.7553 88.5859 51.5098C88.7931 51.6774 88.9607 51.8751 89.1188 52.0797C89.2716 52.2882 89.4155 52.5037 89.5203 52.7489Z" fill="white"/>
<path d="M71.2444 56.8788C71.0376 56.7108 70.8699 56.5135 70.7115 56.3089C70.558 56.1007 70.4141 55.8852 70.3101 55.6396C70.5172 55.8073 70.6848 56.005 70.8429 56.2096C70.9961 56.4178 71.14 56.6333 71.2444 56.8788Z" fill="white"/>
<path d="M87.2989 61.7948C87.0921 61.6268 86.9245 61.4295 86.766 61.2249C86.6126 61.0167 86.4687 60.8012 86.3643 60.5557C86.5714 60.7233 86.739 60.921 86.8971 61.1256C87.0506 61.3338 87.1942 61.5496 87.2989 61.7948Z" fill="white"/>
<path d="M79.2532 47.786C79.0463 47.6181 78.8787 47.4207 78.7203 47.2161C78.5668 47.0079 78.4229 46.7924 78.3188 46.5469C78.526 46.7145 78.6936 46.9122 78.8517 47.1168C79.0048 47.325 79.1488 47.5405 79.2532 47.786Z" fill="white"/>
<path d="M79.3953 64.5927C79.1884 64.4247 79.0208 64.2274 78.8624 64.0228C78.7089 63.8145 78.565 63.599 78.4609 63.3535C78.6681 63.5212 78.8357 63.7188 78.9938 63.9234C79.1466 64.1317 79.2905 64.3471 79.3953 64.5927Z" fill="white"/>
<path d="M80.7629 54.6786C80.5561 54.5106 80.3885 54.3133 80.2301 54.1087C80.0766 53.9005 79.9327 53.685 79.8286 53.4395C80.0358 53.6071 80.2034 53.8048 80.3615 54.0094C80.5146 54.2176 80.6585 54.4331 80.7629 54.6786Z" fill="white"/>
<path d="M87.5222 46.4467C86.2829 46.2157 85.1148 43.6453 84.9679 41.9161C84.9583 41.7976 85.5482 40.8561 86.2105 39.678C86.6096 38.9616 87.0374 38.1544 87.3747 37.3898C87.4432 37.2324 87.8492 37.7571 87.8492 37.7571L88.7315 38.4333L91.6478 40.674C91.6478 40.674 90.4704 42.0689 89.8908 43.4057C89.8437 43.5179 89.8088 43.6265 89.7854 43.7341C89.7808 43.7492 89.7771 43.7684 89.7696 43.7892C89.6033 44.4284 88.72 46.6691 87.5222 46.4467Z" fill="#EB9481"/>
<path d="M89.7852 43.7347C89.7806 43.7498 89.777 43.769 89.7694 43.7898C89.61 43.7449 89.443 43.6812 89.2658 43.598C86.0743 42.0992 87.4822 37.8145 87.4822 37.8145L88.7317 38.4339L91.6479 40.6746C91.6479 40.6746 90.4705 42.0695 89.8909 43.4063C89.8435 43.5185 89.8089 43.6271 89.7852 43.7347Z" fill="#263238"/>
<path d="M94.9951 31.542C94.9951 31.542 96.4531 32.47 96.4626 34.1193C96.4722 35.769 95.8165 37.3827 95.6643 37.4404C95.5122 37.4982 94.9951 31.542 94.9951 31.542Z" fill="#263238"/>
<path d="M87.7581 32.3974C86.8815 34.1315 86.9256 39.5917 88.0206 40.9988C89.6077 43.0385 92.6652 43.7414 94.5105 41.7248C96.2994 39.7699 96.116 32.6551 94.8503 31.3292C92.9863 29.3762 89.0534 29.8359 87.7581 32.3974Z" fill="#EB9481"/>
<path d="M92.408 36.7721C92.4047 36.7579 92.3794 36.7902 92.3804 36.8057C92.4008 37.1776 92.3616 37.607 92.0283 37.7383C92.0181 37.7423 92.0194 37.7611 92.0319 37.7591C92.4403 37.6914 92.4867 37.1209 92.408 36.7721Z" fill="#263238"/>
<path d="M92.0673 36.3912C91.4689 36.3596 91.4501 37.5611 92.0044 37.5905C92.5501 37.6192 92.5688 36.4176 92.0673 36.3912Z" fill="#263238"/>
<path d="M94.44 36.7594C94.443 36.7452 94.4687 36.7775 94.468 36.7927C94.4502 37.1646 94.4927 37.5936 94.8267 37.7226C94.8372 37.7266 94.8356 37.7454 94.8234 37.7434C94.4143 37.6788 94.3636 37.1088 94.44 36.7594Z" fill="#263238"/>
<path d="M94.778 36.3758C95.3761 36.3398 95.4037 37.541 94.8498 37.5744C94.3044 37.6074 94.2764 36.4058 94.778 36.3758Z" fill="#263238"/>
<path d="M91.6916 35.4771C91.8556 35.4385 92.0005 35.3755 92.1586 35.3207C92.3371 35.2586 92.4856 35.2276 92.6045 35.0702C92.6681 34.9857 92.6447 34.8319 92.5686 34.762C92.3911 34.5996 92.154 34.6211 91.936 34.6871C91.6995 34.7587 91.5355 34.8742 91.3975 35.0788C91.2631 35.2771 91.4752 35.5279 91.6916 35.4771Z" fill="#263238"/>
<path d="M95.1935 36.0101C95.0278 35.9804 94.8796 35.9253 94.7189 35.8787C94.5375 35.8263 94.3873 35.8032 94.2605 35.652C94.1923 35.5708 94.2078 35.4161 94.2799 35.3425C94.4482 35.1709 94.6867 35.1798 94.9076 35.2339C95.1477 35.2926 95.3177 35.3996 95.4662 35.5966C95.6104 35.7873 95.4122 36.0493 95.1935 36.0101Z" fill="#263238"/>
<path d="M91.5619 40.2983C91.6495 40.3867 91.7365 40.5082 91.8709 40.5217C92 40.5346 92.1524 40.4785 92.2716 40.4342C92.2835 40.4299 92.295 40.4425 92.2875 40.4537C92.1887 40.5949 91.9845 40.6811 91.8129 40.6484C91.6453 40.6164 91.5646 40.4695 91.526 40.3148C91.5208 40.293 91.5491 40.2854 91.5619 40.2983Z" fill="#263238"/>
<path d="M93.7191 38.7083C93.7191 38.7083 93.7349 39.2653 93.7069 39.524C93.7043 39.5481 92.9758 39.4052 92.1906 39.5785C92.0731 39.6045 92.0846 39.5085 92.2203 39.4458C92.492 39.3201 92.8371 39.2023 93.509 39.2745C93.535 39.2049 93.4688 38.4175 93.51 38.4188C93.6526 38.4221 93.9203 38.5489 94.082 38.6162C94.0827 37.4549 93.8976 36.3032 93.9157 35.1469C93.917 35.1056 93.9769 35.0997 93.9849 35.1377C94.2641 36.3313 94.2925 37.6674 94.3227 38.8667C94.3283 39.0161 93.8179 38.7637 93.7191 38.7083Z" fill="#263238"/>
<path d="M92.978 39.3257C92.978 39.3257 92.7191 39.9785 92.2864 40.1537C91.7884 40.3556 91.6178 39.9039 92.126 39.5049C92.3924 39.2957 92.978 39.3257 92.978 39.3257Z" fill="#263238"/>
<path d="M92.4594 40.0523C92.4034 40.0952 92.3474 40.1315 92.2848 40.1546C91.8271 40.3394 91.6459 39.9731 92.0148 39.6035C92.2654 39.6233 92.5384 39.7157 92.4594 40.0523Z" fill="#FF99BA"/>
<path d="M87.506 37.0693C88.1081 37.2545 88.801 35.4398 88.9969 34.7422C89.1695 34.1274 89.3688 32.1768 89.3981 32.0438C89.4274 31.9108 92.0235 33.7697 93.5414 33.3252C95.0593 32.8806 96.0737 31.5158 96.0947 30.8785C96.1155 30.2416 94.231 28.6243 92.6002 28.5415C90.9693 28.4586 88.7618 30.5357 88.7618 30.5357C88.7618 30.5357 89.5117 29.6384 89.4863 29.5648C89.461 29.4912 88.4071 29.913 88.2135 30.665C88.2135 30.665 88.4219 29.7209 88.3422 29.7034C88.2625 29.6859 87.4438 30.4944 87.6286 31.1072C87.6286 31.1072 86.6814 31.9293 86.5938 32.8305C86.5059 33.732 86.7986 36.8519 87.506 37.0693Z" fill="#263238"/>
<path d="M94.6201 33.0079C94.1587 33.2208 93.6963 33.4547 93.1862 33.5221C92.6349 33.595 92.0628 33.4564 91.5497 33.2591C91.0248 33.0578 90.5479 32.7654 90.1145 32.408C89.7348 32.0948 89.3982 31.717 88.9928 31.4381C88.8914 31.3685 88.7738 31.5147 88.8364 31.6084C89.4519 32.5337 90.541 33.3062 91.5906 33.6399C92.6948 33.9907 93.7329 33.7438 94.626 33.0201C94.6313 33.0155 94.6277 33.0043 94.6201 33.0079Z" fill="#263238"/>
<path d="M88.136 36.9073C88.136 36.9073 87.2014 35.0058 86.3583 35.3141C85.5152 35.6223 86.0342 38.2497 86.8944 38.7309C87.755 39.212 88.2147 38.4227 88.2147 38.4227L88.136 36.9073Z" fill="#EB9481"/>
<path d="M86.5261 36.0639C86.5116 36.0603 86.5057 36.0804 86.5176 36.0877C87.1176 36.4461 87.3633 37.0925 87.5046 37.7456C87.3508 37.4789 87.1113 37.309 86.7593 37.4872C86.7408 37.4964 86.7527 37.5251 86.7715 37.5242C87.0422 37.5083 87.2243 37.5829 87.3692 37.8205C87.4716 37.9888 87.5286 38.1904 87.5918 38.3762C87.6129 38.4383 87.7209 38.4234 87.7094 38.3541C87.7084 38.3488 87.7074 38.3436 87.7064 38.3383C87.8481 37.5228 87.3896 36.2811 86.5261 36.0639Z" fill="#263238"/>
<path d="M81.9608 45.3944C81.3169 49.1327 85.345 61.7294 87.9385 64.0823C91.7953 67.5813 98.9264 69.8821 101.51 70.6305C102.636 70.9569 105.752 63.0161 104.613 62.4931C102.173 61.373 94.5914 59.0036 93.8777 58.3951C93.164 57.7866 88.8076 51.506 86.8708 47.884C84.2727 43.0241 82.2865 43.5035 81.9608 45.3944Z" fill="#EB9481"/>
<path d="M102.694 61.7949C102.694 61.7949 106.057 62.6536 108.23 63.3189C109.442 63.6898 111.463 64.5118 112.229 65.1926C113.375 66.211 117.518 71.2029 116.332 72.2358C115.258 73.1707 112.242 68.4289 112.242 68.4289C112.242 68.4289 115.708 72.944 114.208 73.8313C112.709 74.7187 110.012 68.9071 110.012 68.9071C110.012 68.9071 113.469 73.6261 111.778 74.2963C110.5 74.8025 107.762 69.677 107.762 69.677C107.762 69.677 110.705 73.7538 109.414 74.3313C107.986 74.9695 105.162 70.397 105.162 70.397C101.632 71.3108 99.5786 70.2994 98.203 69.4054C97.87 69.1882 102.694 61.7949 102.694 61.7949Z" fill="#EB9481"/>
<path d="M111.143 66.7902C111.569 67.3057 112.005 67.8248 112.384 68.3766C112.763 68.9283 113.123 69.4939 113.449 70.0787C114.249 71.5129 114.526 72.5362 114.502 72.4748C113.935 71.0241 112.608 69.0276 112.229 68.4755C111.851 67.9248 111.5 67.3552 111.122 66.8038C111.112 66.7899 111.133 66.778 111.143 66.7902Z" fill="#263238"/>
<path d="M109.13 68.1252C109.86 68.7054 111.392 70.8659 111.984 72.3132C112.008 72.374 111.976 72.369 111.94 72.3139C111.477 71.5988 109.607 68.8258 109.112 68.1364C109.105 68.1255 109.12 68.1173 109.13 68.1252Z" fill="#263238"/>
<path d="M107.196 68.9606C108.042 69.7994 108.752 70.9445 109.311 72.2682C109.336 72.3279 109.288 72.3187 109.253 72.2622C108.571 71.1495 108.044 70.2717 107.161 68.99C107.147 68.9698 107.176 68.9411 107.196 68.9606Z" fill="#263238"/>
<path d="M85.6262 45.6689C82.619 41.4073 80.8222 42.987 81.4252 47.6126C81.989 51.9386 83.5023 57.0922 83.5023 57.0922L91.0905 53.4094C91.0905 53.4094 87.5505 48.3964 85.6262 45.6689Z" fill="#5864FF"/>
<path d="M87.4638 47.3447C87.5712 47.5889 87.6301 47.8414 87.6772 48.0958C87.7184 48.3516 87.748 48.609 87.7286 48.8753C87.6209 48.6311 87.562 48.3786 87.5152 48.1242C87.4744 47.8681 87.445 47.6107 87.4638 47.3447Z" fill="white"/>
<path d="M82.9741 49.9355C83.2178 49.8279 83.4698 49.7692 83.7237 49.7217C83.9789 49.6804 84.2358 49.6507 84.5016 49.6702C84.2579 49.7781 84.0059 49.8372 83.752 49.884C83.4968 49.9249 83.2396 49.9543 82.9741 49.9355Z" fill="white"/>
<path d="M83.1697 43.3086C83.0732 43.5574 82.9368 43.7775 82.7906 43.991C82.6395 44.2009 82.4784 44.4042 82.2769 44.5784C82.373 44.3296 82.5097 44.1092 82.6559 43.896C82.8074 43.6861 82.9685 43.4832 83.1697 43.3086Z" fill="white"/>
<path d="M89.5722 51.9258C89.4757 52.1743 89.3393 52.3947 89.1931 52.6082C89.042 52.8181 88.8812 53.0214 88.6797 53.1956C88.7759 52.9468 88.9122 52.7264 89.0588 52.5132C89.2102 52.3036 89.3713 52.1004 89.5722 51.9258Z" fill="white"/>
<path d="M84.3224 54.5105C84.0741 54.4138 83.8545 54.2772 83.6414 54.1307C83.4319 53.9792 83.2291 53.8178 83.0552 53.6162C83.3035 53.7126 83.5232 53.8492 83.7362 53.996C83.9457 54.1475 84.1482 54.3089 84.3224 54.5105Z" fill="white"/>
<path d="M86.6348 46.9518C87.0386 47.5085 87.4571 48.0544 87.8741 48.6012C87.7684 48.3246 87.6768 48.0451 87.5951 47.7597C87.5915 47.7465 87.6103 47.7409 87.6152 47.7534C87.6995 47.9722 87.7931 48.188 87.8737 48.4081C87.9126 48.514 87.9521 48.6193 87.9926 48.7246C88.0015 48.7474 88.0104 48.7698 88.0193 48.7922C88.3437 49.2189 88.6668 49.6466 88.979 50.0819C89.3515 50.6016 89.7111 51.1303 90.0724 51.658C90.4455 52.2031 90.7995 52.8423 91.1938 53.3723C91.228 53.4182 90.5222 53.704 90.4564 53.7406C90.3889 53.7782 90.3431 53.7125 90.4149 53.6908C90.4811 53.6706 91.04 53.3264 91.0469 53.3195C90.6859 52.7875 90.2663 52.2955 89.8883 51.7754C89.5122 51.2577 89.1344 50.7412 88.7695 50.2155C88.0285 49.1476 87.3481 48.0382 86.6127 46.9657C86.6032 46.9522 86.6249 46.9383 86.6348 46.9518Z" fill="#263238"/>
<path d="M81.612 50.6731C81.7273 50.8981 81.8514 51.1209 81.9535 51.3522C81.9957 51.4479 82.0372 51.5436 82.0793 51.6393C81.9064 50.8156 81.7368 49.9913 81.5685 49.1663C81.5666 49.1567 81.5811 49.1518 81.5837 49.1617C81.9315 50.4972 82.2829 51.8314 82.6056 53.1731C82.9135 54.4522 83.2854 55.7471 83.4616 57.0523C83.5666 57.0176 84.1571 56.7728 84.1742 56.8111C84.1914 56.8497 83.4023 57.2219 83.3917 57.1909C82.9623 55.9154 82.6962 54.4667 82.4041 53.154C82.3217 52.7844 82.245 52.4138 82.1663 52.0432C82.0807 51.8201 81.9769 51.6053 81.8758 51.3885C81.7688 51.1592 81.6825 50.9189 81.5886 50.684C81.583 50.6704 81.6051 50.6599 81.612 50.6731Z" fill="#263238"/>
<path d="M83.6227 55.8212C84.6769 55.2255 89.0814 52.9409 90.0667 52.5103C90.1349 52.4802 90.1708 52.5155 90.1036 52.5555C86.9885 54.4154 84.7121 55.3281 83.6477 55.8611C83.6213 55.8743 83.596 55.8363 83.6227 55.8212Z" fill="#263238"/>
<path d="M204.3 142.577H103.959L118.469 60.126H218.809L204.3 142.577Z" fill="#5864FF"/>
<path d="M152.81 51.5869H119.971L118.469 60.1257H153.612L152.81 51.5869Z" fill="#5864FF"/>
<g opacity="0.1">
<path d="M204.3 142.577H103.959L118.469 60.126H218.809L204.3 142.577Z" fill="black"/>
<path d="M152.81 51.5869H119.971L118.469 60.1257H153.612L152.81 51.5869Z" fill="black"/>
</g>
<path d="M116.428 55.0699C116.298 54.5914 116.269 54.1126 116.263 53.6341C116.268 53.1552 116.297 52.6767 116.428 52.1982C116.558 52.6767 116.588 53.1556 116.593 53.6341C116.587 54.1129 116.558 54.5914 116.428 55.0699Z" fill="#263238"/>
<path d="M113.51 55.9156C113.158 55.5661 112.894 55.1662 112.651 54.7547C112.416 54.3379 112.202 53.9085 112.077 53.4287C112.429 53.7779 112.693 54.1778 112.936 54.5897C113.17 55.0068 113.383 55.4361 113.51 55.9156Z" fill="#263238"/>
<path d="M111.405 58.1097C110.926 57.9829 110.498 57.7691 110.081 57.5345C109.67 57.2909 109.271 57.0263 108.923 56.6738C109.402 56.7999 109.83 57.0137 110.246 57.249C110.657 57.4932 111.056 57.7575 111.405 58.1097Z" fill="#263238"/>
<path d="M110.676 61.0654C110.199 61.1954 109.721 61.2248 109.243 61.2304C108.766 61.2254 108.288 61.1964 107.811 61.0654C108.288 60.9347 108.766 60.9053 109.243 60.9004C109.721 60.906 110.199 60.9354 110.676 61.0654Z" fill="#263238"/>
<path d="M111.52 63.9893C111.171 64.3414 110.772 64.606 110.361 64.8499C109.945 65.0852 109.517 65.299 109.038 65.4251C109.387 65.0726 109.786 64.808 110.197 64.5644C110.613 64.3298 111.041 64.1156 111.52 63.9893Z" fill="#263238"/>
<path d="M113.71 66.0986C113.584 66.5781 113.37 67.0074 113.136 67.4246C112.893 67.8367 112.629 68.2367 112.277 68.5855C112.403 68.1057 112.617 67.6764 112.851 67.2596C113.095 66.8481 113.359 66.4481 113.71 66.0986Z" fill="#263238"/>
<path d="M116.659 66.8281C116.789 67.307 116.818 67.7855 116.824 68.264C116.819 68.7425 116.79 69.2213 116.659 69.6998C116.529 69.2213 116.5 68.7425 116.495 68.264C116.5 67.7855 116.53 67.307 116.659 66.8281Z" fill="#263238"/>
<path d="M119.577 65.9824C119.929 66.3319 120.192 66.7318 120.436 67.1434C120.671 67.5601 120.884 67.9895 121.01 68.4693C120.658 68.1202 120.394 67.7202 120.151 67.3084C119.917 66.8909 119.704 66.4619 119.577 65.9824Z" fill="#263238"/>
<path d="M121.683 63.7881C122.161 63.9148 122.59 64.1286 123.006 64.3633C123.417 64.6068 123.816 64.8715 124.164 65.2239C123.686 65.0979 123.257 64.884 122.841 64.6487C122.431 64.4049 122.031 64.1402 121.683 63.7881Z" fill="#263238"/>
<path d="M122.411 60.833C122.888 60.7029 123.366 60.6736 123.844 60.668C124.321 60.6729 124.799 60.702 125.277 60.833C124.799 60.9636 124.321 60.993 123.844 60.998C123.366 60.9924 122.888 60.9633 122.411 60.833Z" fill="#263238"/>
<path d="M121.567 57.9095C121.916 57.5574 122.315 57.2927 122.725 57.0488C123.141 56.8139 123.57 56.5997 124.049 56.4736C123.7 56.8261 123.301 57.0907 122.89 57.3343C122.474 57.5689 122.045 57.7827 121.567 57.9095Z" fill="#263238"/>
<path d="M119.377 55.7994C119.503 55.3199 119.717 54.8906 119.951 54.4734C120.194 54.0613 120.458 53.6613 120.81 53.3125C120.684 53.7923 120.471 54.2217 120.236 54.6384C119.992 55.05 119.728 55.4499 119.377 55.7994Z" fill="#263238"/>
<path d="M204.153 142.577H103.596L89.3193 63.1191H189.876L204.153 142.577Z" fill="#5864FF"/>
<path d="M124.164 111.692C126.473 111.692 128.344 109.817 128.344 107.504C128.344 105.191 126.473 103.316 124.164 103.316C121.856 103.316 119.985 105.191 119.985 107.504C119.985 109.817 121.856 111.692 124.164 111.692Z" fill="#263238"/>
<path d="M157.205 111.692C159.513 111.692 161.385 109.817 161.385 107.504C161.385 105.191 159.513 103.316 157.205 103.316C154.897 103.316 153.025 105.191 153.025 107.504C153.025 109.817 154.897 111.692 157.205 111.692Z" fill="#263238"/>
<path d="M146.688 112.361L146.458 111.922C146.437 111.882 144.279 107.884 139.934 107.884C135.972 107.884 135.006 111.649 134.967 111.809L134.849 112.289L133.891 112.057L134.006 111.577C134.018 111.53 135.184 106.894 139.934 106.894C144.886 106.894 147.236 111.276 147.334 111.463L147.563 111.901L146.688 112.361Z" fill="#263238"/>
<path d="M197.48 107.023C197.694 106.977 197.908 106.927 198.121 106.872" stroke="#263238" stroke-miterlimit="10"/>
<path d="M199.386 106.497C204.423 104.792 208.642 100.821 209.039 96.1822C209.914 85.9522 197.48 80.3013 198.765 68.48C199.99 57.2036 211.794 56.3991 216.526 57.9577C221.752 59.6793 219.961 64.7128 215.229 64.0633C207.026 62.9374 201.869 54.0006 205.765 43.863C208.676 36.2892 215.933 33.4327 218.881 32.5615" stroke="#263238" stroke-miterlimit="10" stroke-dasharray="4 4"/>
<path d="M219.515 32.3855C219.923 32.2802 220.155 32.2363 220.155 32.2363" stroke="#263238" stroke-miterlimit="10"/>
<path d="M225.379 30.4137C224.538 27.8054 218.913 28.7426 220.012 32.1502C221.11 35.5581 226.219 33.022 225.379 30.4137Z" fill="#263238"/>
<path d="M216.952 29.3621C216.994 28.2183 218.582 27.3382 220.827 27.7441C223.072 28.1503 225.186 29.6654 225.186 29.6654C225.186 29.6654 222.966 31.0259 220.698 31.2659C218.429 31.5061 216.91 30.5115 216.952 29.3621Z" fill="#EBEBEB"/>
<path d="M225.186 29.6655C224.021 29.6734 222.857 29.6345 221.693 29.5988C220.529 29.549 219.366 29.5028 218.204 29.4084C219.369 29.3998 220.533 29.4394 221.697 29.4751C222.861 29.5252 224.024 29.5718 225.186 29.6655Z" fill="#263238"/>
<path d="M219.208 28.3496C219.546 28.5007 219.858 28.6925 220.171 28.8806C220.478 29.0812 220.786 29.2786 221.069 29.5165C220.732 29.3657 220.42 29.174 220.106 28.9852C219.8 28.7849 219.492 28.5875 219.208 28.3496Z" fill="#263238"/>
<path d="M222.26 29.5576C221.965 29.8087 221.644 30.0196 221.325 30.2338C220.999 30.4357 220.674 30.6413 220.324 30.806C220.619 30.5549 220.94 30.3437 221.258 30.1298C221.585 29.9279 221.909 29.7229 222.26 29.5576Z" fill="#263238"/>
<path d="M222.599 28.9141C222.773 28.989 222.917 29.1008 223.063 29.2101C223.2 29.3302 223.34 29.4473 223.45 29.6021C223.276 29.5275 223.132 29.4153 222.986 29.3061C222.848 29.1857 222.709 29.0682 222.599 28.9141Z" fill="#263238"/>
<path d="M219.091 36.1512C219.793 37.0544 221.595 36.8376 223.179 35.1929C224.763 33.5478 225.594 31.0801 225.594 31.0801C225.594 31.0801 222.999 31.2771 221.019 32.412C219.038 33.5465 218.386 35.2437 219.091 36.1512Z" fill="#EBEBEB"/>
<path d="M225.593 31.0801C224.643 31.7566 223.722 32.4704 222.799 33.1815C221.884 33.9039 220.967 34.6233 220.08 35.3803C221.03 34.7041 221.951 33.99 222.874 33.2789C223.789 32.5565 224.706 31.8371 225.593 31.0801Z" fill="#263238"/>
<path d="M221.513 35.6504C221.698 35.3299 221.839 34.992 221.984 34.6551C222.115 34.3129 222.25 33.972 222.341 33.6133C222.156 33.9334 222.014 34.2716 221.87 34.6086C221.738 34.9508 221.604 35.2917 221.513 35.6504Z" fill="#263238"/>
<path d="M223.283 32.8826C222.897 32.8519 222.513 32.8687 222.13 32.8816C221.747 32.909 221.364 32.9327 220.983 33.0043C221.369 33.0354 221.753 33.0185 222.136 33.0053C222.519 32.9776 222.902 32.9535 223.283 32.8826Z" fill="#263238"/>
<path d="M223.934 33.2064C224.031 33.0437 224.082 32.8685 224.138 32.6942C224.179 32.516 224.224 32.3392 224.223 32.1494C224.125 32.3121 224.074 32.4873 224.019 32.6616C223.977 32.8398 223.933 33.017 223.934 33.2064Z" fill="#263238"/>
<path d="M225.379 30.4136C224.86 30.5812 224.304 30.2961 224.136 29.7763C223.969 29.2566 224.254 28.6995 224.772 28.5316C225.29 28.3636 225.847 28.649 226.014 29.1688C226.182 29.6885 225.897 30.2459 225.379 30.4136Z" fill="#455A64"/>
<path d="M225.985 32.2962C225.466 32.4639 224.911 32.1788 224.743 31.659C224.575 31.1393 224.86 30.5822 225.379 30.4142C225.898 30.2466 226.453 30.5317 226.621 31.0515C226.788 31.5709 226.504 32.1283 225.985 32.2962Z" fill="#455A64"/>
<path d="M118.014 31.4554C117.542 35.9727 113.503 39.2533 108.995 38.7807C107.174 38.5896 105.554 37.8148 104.3 36.6575L100.193 37.2614L102.248 33.704C101.749 32.4886 101.54 31.1359 101.685 29.7437C102.157 25.2263 106.195 21.9458 110.703 22.4183C115.211 22.8909 118.485 26.938 118.014 31.4554Z" fill="white"/>
<path d="M118.014 31.4555C117.842 32.957 117.295 34.4288 116.357 35.6247C116.142 35.9379 115.865 36.1996 115.613 36.483C115.328 36.7319 115.062 37.0051 114.747 37.218C114.147 37.6813 113.472 38.0446 112.767 38.3228C112.065 38.6188 111.31 38.76 110.557 38.8508C110.178 38.8713 109.797 38.9059 109.417 38.8726C109.036 38.864 108.656 38.8231 108.281 38.7541C106.779 38.4815 105.356 37.777 104.22 36.7451L104.317 36.7751L100.215 37.4061L99.917 37.4519L100.068 37.1889L102.11 33.6246L102.101 33.7652C101.106 31.4175 101.33 28.6218 102.606 26.4342C103.243 25.3389 104.13 24.3951 105.177 23.6913C106.224 22.9854 107.438 22.5429 108.68 22.3742C109.924 22.2089 111.204 22.3224 112.392 22.7178C113.578 23.118 114.666 23.7912 115.558 24.6628C117.369 26.389 118.28 28.9788 118.014 31.4555ZM118.014 31.4555C118.263 28.9769 117.334 26.4029 115.521 24.6997C114.621 23.848 113.532 23.2029 112.356 22.8283C111.178 22.459 109.919 22.3709 108.705 22.5541C107.493 22.7405 106.319 23.193 105.315 23.8959C104.314 24.6004 103.469 25.5218 102.859 26.5801C102.237 27.6361 101.915 28.8459 101.818 30.0603C101.741 31.2786 101.939 32.5118 102.395 33.6434L102.425 33.717L102.386 33.7843L100.319 37.3344L100.172 37.1173L104.283 36.5405L104.339 36.5325L104.38 36.5705C105.466 37.5925 106.841 38.306 108.31 38.5993C108.677 38.6736 109.049 38.7201 109.424 38.735C109.798 38.7746 110.172 38.7468 110.547 38.7333C111.291 38.6568 112.04 38.5307 112.74 38.2495C113.442 37.9859 114.121 37.6404 114.72 37.1803C115.034 36.9708 115.3 36.7012 115.586 36.4553C115.838 36.1752 116.117 35.9164 116.333 35.6059C117.274 34.4205 117.832 32.956 118.014 31.4555Z" fill="#263238"/>
<path d="M105.836 34.435C105.836 33.944 106.177 33.5892 106.639 33.5892C107.129 33.5892 107.443 33.944 107.443 34.435C107.443 34.9125 107.129 35.2805 106.639 35.2805C106.163 35.2805 105.836 34.9122 105.836 34.435ZM106.177 32.4844L105.986 25.9375H107.293L107.102 32.4844H106.177Z" fill="#5864FF"/>
<path d="M108.967 34.435C108.967 33.944 109.307 33.5892 109.771 33.5892C110.261 33.5892 110.574 33.944 110.574 34.435C110.574 34.9125 110.261 35.2805 109.771 35.2805C109.294 35.2805 108.967 34.9122 108.967 34.435ZM109.307 32.4844L109.117 25.9375H110.424L110.234 32.4844H109.307Z" fill="#5864FF"/>
<path d="M112.098 34.435C112.098 33.944 112.438 33.5892 112.901 33.5892C113.391 33.5892 113.704 33.944 113.704 34.435C113.704 34.9125 113.391 35.2805 112.901 35.2805C112.425 35.2805 112.098 34.9122 112.098 34.435ZM112.439 32.4844L112.248 25.9375H113.555L113.364 32.4844H112.439Z" fill="#5864FF"/>
</svg>
